<svg width="409" height="87" viewBox="0 0 409 87" fill="none" xmlns="http://www.w3.org/2000/svg">
<g clip-path="url(#clip0_88_29)">
<path d="M12.0001 64.9718C44.2493 56.7237 62.85 53.5191 96.0001 50.5C133.725 47.0642 155.335 54.5388 193 50.5C230.139 46.5177 249.203 32.3749 286.5 30.3617C327.548 28.146 351.664 31.0627 391 42.9999" stroke="#FF5880" stroke-width="6" stroke-linecap="round" stroke-linejoin="round"/>
<path d="M26.9856 79.8V24.966H34.9776V33.254L34.0156 31.33C35.4956 29.0607 37.4689 27.2847 39.9356 26.002C42.4022 24.7193 45.2142 24.078 48.3716 24.078C52.1702 24.078 55.5742 24.9907 58.5836 26.816C61.6422 28.6413 64.0349 31.1327 65.7616 34.29C67.5376 37.4473 68.4256 40.9993 68.4256 44.946C68.4256 48.8927 67.5376 52.4447 65.7616 55.602C64.0349 58.7593 61.6669 61.2753 58.6576 63.15C55.6482 64.9753 52.2196 65.888 48.3716 65.888C45.2636 65.888 42.4269 65.2467 39.8616 63.964C37.3456 62.6813 35.3969 60.8313 34.0156 58.414L35.3476 56.86V79.8H26.9856ZM47.5576 58.118C49.9256 58.118 52.0222 57.5507 53.8476 56.416C55.6729 55.2813 57.1036 53.7273 58.1396 51.754C59.2249 49.7313 59.7676 47.462 59.7676 44.946C59.7676 42.43 59.2249 40.1853 58.1396 38.212C57.1036 36.2387 55.6729 34.6847 53.8476 33.55C52.0222 32.4153 49.9256 31.848 47.5576 31.848C45.2389 31.848 43.1422 32.4153 41.2676 33.55C39.4422 34.6847 37.9869 36.2387 36.9016 38.212C35.8656 40.1853 35.3476 42.43 35.3476 44.946C35.3476 47.462 35.8656 49.7313 36.9016 51.754C37.9869 53.7273 39.4422 55.2813 41.2676 56.416C43.1422 57.5507 45.2389 58.118 47.5576 58.118ZM90.8418 65.888C87.8324 65.888 85.1931 65.222 82.9238 63.89C80.6544 62.5087 78.8784 60.6093 77.5958 58.192C76.3624 55.7253 75.7458 52.8887 75.7458 49.682V24.966H84.1078V48.942C84.1078 50.7673 84.4778 52.3707 85.2178 53.752C85.9578 55.1333 86.9938 56.2187 88.3258 57.008C89.6578 57.748 91.1871 58.118 92.9138 58.118C94.6898 58.118 96.2438 57.7233 97.5758 56.934C98.9078 56.1447 99.9438 55.0347 100.684 53.604C101.473 52.1733 101.868 50.496 101.868 48.572V24.966H110.156V65H102.238V57.156L103.126 58.192C102.188 60.6587 100.634 62.558 98.4638 63.89C96.2931 65.222 93.7524 65.888 90.8418 65.888ZM119.919 65V24.966H127.911V32.81L126.949 31.774C127.936 29.258 129.514 27.3587 131.685 26.076C133.856 24.744 136.372 24.078 139.233 24.078C142.193 24.078 144.808 24.7193 147.077 26.002C149.346 27.2847 151.122 29.0607 152.405 31.33C153.688 33.5993 154.329 36.214 154.329 39.174V65H146.041V41.394C146.041 39.3713 145.671 37.6693 144.931 36.288C144.191 34.8573 143.13 33.772 141.749 33.032C140.417 32.2427 138.888 31.848 137.161 31.848C135.434 31.848 133.88 32.2427 132.499 33.032C131.167 33.772 130.131 34.8573 129.391 36.288C128.651 37.7187 128.281 39.4207 128.281 41.394V65H119.919ZM166.108 81.354C165.121 81.354 164.135 81.2553 163.148 81.058C162.211 80.91 161.347 80.6633 160.558 80.318V73.14C161.15 73.288 161.865 73.4113 162.704 73.51C163.543 73.658 164.357 73.732 165.146 73.732C167.465 73.732 169.167 73.214 170.252 72.178C171.387 71.1913 172.398 69.6373 173.286 67.516L175.95 61.448L175.802 68.478L158.486 24.966H167.44L180.242 58.34H177.208L189.936 24.966H198.964L181.278 69.366C180.341 71.734 179.157 73.806 177.726 75.582C176.345 77.4073 174.692 78.8133 172.768 79.8C170.893 80.836 168.673 81.354 166.108 81.354ZM219.487 65.888C215.392 65.888 211.791 64.8767 208.683 62.854C205.624 60.8313 203.478 58.118 202.245 54.714L208.683 51.68C209.768 53.9493 211.248 55.75 213.123 57.082C215.047 58.414 217.168 59.08 219.487 59.08C221.46 59.08 223.063 58.636 224.297 57.748C225.53 56.86 226.147 55.6513 226.147 54.122C226.147 53.1353 225.875 52.346 225.333 51.754C224.79 51.1127 224.099 50.5947 223.261 50.2C222.471 49.8053 221.657 49.5093 220.819 49.312L214.529 47.536C211.075 46.5493 208.485 45.0693 206.759 43.096C205.081 41.0733 204.243 38.73 204.243 36.066C204.243 33.6487 204.859 31.552 206.093 29.776C207.326 27.9507 209.028 26.5447 211.199 25.558C213.369 24.5713 215.811 24.078 218.525 24.078C222.175 24.078 225.431 24.9907 228.293 26.816C231.154 28.592 233.177 31.0833 234.361 34.29L227.923 37.324C227.133 35.4 225.875 33.8707 224.149 32.736C222.471 31.6013 220.572 31.034 218.451 31.034C216.625 31.034 215.17 31.478 214.085 32.366C212.999 33.2047 212.457 34.3147 212.457 35.696C212.457 36.6333 212.703 37.4227 213.197 38.064C213.69 38.656 214.331 39.1493 215.121 39.544C215.91 39.8893 216.724 40.1853 217.563 40.432L224.075 42.356C227.38 43.2933 229.921 44.7733 231.697 46.796C233.473 48.7693 234.361 51.1373 234.361 53.9C234.361 56.268 233.719 58.3647 232.437 60.19C231.203 61.966 229.477 63.372 227.257 64.408C225.037 65.3947 222.447 65.888 219.487 65.888ZM242.554 65V8.982H250.916V32.81L249.584 31.774C250.571 29.258 252.149 27.3587 254.32 26.076C256.491 24.744 259.007 24.078 261.868 24.078C264.828 24.078 267.443 24.7193 269.712 26.002C271.981 27.2847 273.757 29.0607 275.04 31.33C276.323 33.5993 276.964 36.1893 276.964 39.1V65H268.676V41.394C268.676 39.3713 268.281 37.6693 267.492 36.288C266.752 34.8573 265.716 33.772 264.384 33.032C263.052 32.2427 261.523 31.848 259.796 31.848C258.119 31.848 256.589 32.2427 255.208 33.032C253.876 33.772 252.815 34.8573 252.026 36.288C251.286 37.7187 250.916 39.4207 250.916 41.394V65H242.554ZM305.227 65.888C301.379 65.888 297.852 64.9753 294.645 63.15C291.488 61.3247 288.972 58.8333 287.097 55.676C285.223 52.5187 284.285 48.942 284.285 44.946C284.285 40.9007 285.223 37.324 287.097 34.216C288.972 31.0587 291.488 28.592 294.645 26.816C297.803 24.9907 301.33 24.078 305.227 24.078C309.174 24.078 312.701 24.9907 315.809 26.816C318.967 28.592 321.458 31.0587 323.283 34.216C325.158 37.324 326.095 40.9007 326.095 44.946C326.095 48.9913 325.158 52.5927 323.283 55.75C321.409 58.9073 318.893 61.3987 315.735 63.224C312.578 65 309.075 65.888 305.227 65.888ZM305.227 58.118C307.595 58.118 309.692 57.5507 311.517 56.416C313.343 55.2813 314.773 53.7273 315.809 51.754C316.895 49.7313 317.437 47.462 317.437 44.946C317.437 42.43 316.895 40.1853 315.809 38.212C314.773 36.2387 313.343 34.6847 311.517 33.55C309.692 32.4153 307.595 31.848 305.227 31.848C302.909 31.848 300.812 32.4153 298.937 33.55C297.112 34.6847 295.657 36.2387 294.571 38.212C293.535 40.1853 293.017 42.43 293.017 44.946C293.017 47.462 293.535 49.7313 294.571 51.754C295.657 53.7273 297.112 55.2813 298.937 56.416C300.812 57.5507 302.909 58.118 305.227 58.118ZM334.259 65V24.966H342.251V33.032L341.511 31.848C342.399 29.2333 343.83 27.3587 345.803 26.224C347.776 25.04 350.144 24.448 352.907 24.448H355.349V32.07H351.871C349.108 32.07 346.864 32.9333 345.137 34.66C343.46 36.3373 342.621 38.7547 342.621 41.912V65H334.259ZM379.108 65.444C374.915 65.444 371.659 64.26 369.34 61.892C367.022 59.524 365.862 56.194 365.862 51.902V32.514H358.832V24.966H359.942C361.817 24.966 363.272 24.4233 364.308 23.338C365.344 22.2527 365.862 20.7727 365.862 18.898V15.79H374.224V24.966H383.326V32.514H374.224V51.532C374.224 52.9133 374.446 54.0973 374.89 55.084C375.334 56.0213 376.05 56.7613 377.036 57.304C378.023 57.7973 379.306 58.044 380.884 58.044C381.279 58.044 381.723 58.0193 382.216 57.97C382.71 57.9207 383.178 57.8713 383.622 57.822V65C382.932 65.0987 382.167 65.1973 381.328 65.296C380.49 65.3947 379.75 65.444 379.108 65.444Z" fill="white"/>
</g>
<defs>
<clipPath id="clip0_88_29">
<rect width="409" height="87" fill="white"/>
</clipPath>
</defs>
</svg>
