<svg width="218" height="218" viewBox="0 0 218 218" fill="none" xmlns="http://www.w3.org/2000/svg">
<path d="M125.73 42.3196C126.421 42.1369 127.157 42.3366 127.66 42.8434L174.757 90.2436C175.26 90.7505 175.455 91.4876 175.268 92.1771L157.766 156.664C157.579 157.353 157.038 157.891 156.348 158.074L91.7497 175.16C91.0589 175.343 90.3231 175.143 89.8195 174.636L42.7232 127.236C42.2195 126.729 42.0246 125.992 42.2117 125.302L59.7134 60.8158C59.9005 60.1262 60.4413 59.5888 61.1321 59.4061L125.73 42.3196Z" stroke="#0A61FB" stroke-width="14"/>
<path d="M115.692 86.8869L130.614 101.905C131.117 102.412 131.312 103.149 131.125 103.838L125.58 124.27C125.393 124.96 124.852 125.497 124.161 125.68L103.694 131.093C103.004 131.276 102.268 131.076 101.764 130.569L86.8426 115.551C86.339 115.045 86.144 114.307 86.3312 113.618L91.8763 93.1863C92.0634 92.4967 92.6042 91.9594 93.295 91.7767L113.762 86.3631C114.453 86.1804 115.188 86.3801 115.692 86.8869Z" stroke="#0A61FB" stroke-width="14"/>
<path d="M133.2 32.6624L184.859 84.6545C186.747 86.5553 187.478 89.3192 186.777 91.9052L167.579 162.639C166.878 165.225 164.85 167.24 162.259 167.925L91.4032 186.667C88.8128 187.352 86.0536 186.603 84.165 184.703L32.5062 132.71C30.6176 130.81 29.8865 128.046 30.5884 125.46L49.7855 54.7259C50.4873 52.14 52.5154 50.1249 55.1058 49.4397L125.962 30.6979C128.552 30.0128 131.311 30.7616 133.2 32.6624Z" stroke="#0A61FB" stroke-width="3"/>
<path d="M121.885 75.9967L142.152 96.3942C144.04 98.295 144.771 101.059 144.07 103.645L136.538 131.395C135.836 133.981 133.808 135.996 131.218 136.681L103.42 144.034C100.829 144.719 98.0701 143.971 96.1815 142.07L75.9147 121.672C74.0262 119.771 73.2951 117.007 73.9969 114.422L81.5283 86.6712C82.2301 84.0853 84.2582 82.0702 86.8486 81.385L114.647 74.0322C117.237 73.3471 119.996 74.0959 121.885 75.9967Z" stroke="#0A61FB" stroke-width="3"/>
<path d="M78 54.5C78.8334 61.3333 84.3 74 99.5 70C114.7 66 140.833 71.3333 152 74.5C147 92.1667 141.3 130.6 158.5 143C163 146.244 163.333 153.167 155 150.5C130.167 149.167 80 149.3 78 160.5C75.5 174.5 75 117.5 55.5 86C39.9 60.8 67.5 77.5 57.5 83.5C62.1667 80 72.3001 69.9 75.5001 57.5" stroke="#0A61FB" stroke-opacity="0.21"/>
</svg>
