<svg width="218" height="218" viewBox="0 0 218 218" fill="none" xmlns="http://www.w3.org/2000/svg">
<g clip-path="url(#clip0)">
<path d="M125.73 42.3196C126.421 42.1369 127.157 42.3366 127.66 42.8434L174.757 90.2436C175.26 90.7505 175.455 91.4876 175.268 92.1771L157.766 156.664C157.579 157.353 157.038 157.891 156.348 158.074L91.7497 175.16C91.0589 175.343 90.3231 175.143 89.8195 174.636L42.7232 127.236C42.2195 126.729 42.0246 125.992 42.2117 125.302L59.7134 60.8158C59.9005 60.1262 60.4413 59.5888 61.1321 59.4061L125.73 42.3196Z" stroke="#0A61FB" stroke-width="14"/>
<path d="M196.129 115.299C199.237 114.476 202.548 115.375 204.814 117.656L245.846 158.952C248.112 161.233 248.99 164.55 248.148 167.653L232.9 223.836C232.057 226.939 229.624 229.357 226.515 230.179L170.236 245.066C167.127 245.888 163.816 244.989 161.55 242.708L120.518 201.412C118.252 199.131 117.374 195.814 118.217 192.711L133.465 136.528C134.307 133.425 136.741 131.007 139.849 130.185L196.129 115.299Z" fill="#0A61FB" fill-opacity="0.1"/>
<path d="M25.5054 -59.4226C28.6139 -60.2449 31.9249 -59.3462 34.1912 -57.0653L94.8098 3.94434C97.0761 6.22526 97.9533 9.54198 97.1112 12.6451L74.5845 95.6471C73.7423 98.7503 71.3086 101.168 68.2001 101.991L-14.9451 123.983C-18.0536 124.805 -21.3646 123.907 -23.6309 121.626L-84.2494 60.616C-86.5157 58.335 -87.393 55.0183 -86.5508 51.9152L-64.0241 -31.0868C-63.182 -34.19 -60.7482 -36.6081 -57.6398 -37.4303L25.5054 -59.4226Z" fill="#0A61FB" fill-opacity="0.1"/>
<path d="M51.1287 171.299C54.2372 170.476 57.5482 171.375 59.8145 173.656L100.846 214.952C103.112 217.233 103.99 220.55 103.148 223.653L87.8997 279.836C87.0575 282.939 84.6238 285.357 81.5153 286.179L25.2356 301.066C22.1271 301.888 18.8161 300.989 16.5498 298.708L-24.4819 257.412C-26.7482 255.131 -27.6255 251.814 -26.7833 248.711L-11.5354 192.528C-10.6932 189.425 -8.25948 187.007 -5.15099 186.185L51.1287 171.299Z" fill="#0A61FB" fill-opacity="0.1"/>
<path d="M264.519 -58.8321C267.625 -57.9999 270.051 -55.5739 270.883 -52.4681L285.95 3.76338C286.783 6.86921 285.895 10.1831 283.621 12.4567L242.457 53.621C240.183 55.8946 236.869 56.7826 233.763 55.9504L177.532 40.8832C174.426 40.051 172 37.6251 171.168 34.5192L156.101 -21.7123C155.269 -24.8181 156.157 -28.132 158.43 -30.4056L199.594 -71.5699C201.868 -73.8435 205.182 -74.7315 208.288 -73.8993L264.519 -58.8321Z" fill="#0A61FB" fill-opacity="0.1"/>
<path d="M162.583 36.3983C162.84 36.6464 162.945 37.0128 162.859 37.3594L161.537 42.6705C161.45 43.0172 161.185 43.2915 160.842 43.3901L155.581 44.9002C155.238 44.9988 154.868 44.9067 154.611 44.6586L150.673 40.8576C150.416 40.6095 150.31 40.2431 150.397 39.8965L151.719 34.5854C151.806 34.2387 152.07 33.9644 152.414 33.8658L157.675 32.3557C158.018 32.2571 158.388 32.3492 158.645 32.5973L162.583 36.3983Z" stroke="#0A61FB" stroke-opacity="0.1" stroke-width="2"/>
<path d="M95.3679 186.365C95.3679 186.722 95.1773 187.052 94.8679 187.231L90.1279 189.967C89.8185 190.146 89.4373 190.146 89.1279 189.967L84.3879 187.231C84.0785 187.052 83.8879 186.722 83.8879 186.365L83.8879 180.891C83.8879 180.534 84.0785 180.204 84.3879 180.025L89.1279 177.289C89.4373 177.11 89.8185 177.11 90.1279 177.289L94.8679 180.025C95.1773 180.204 95.3679 180.534 95.3679 180.891L95.3679 186.365Z" stroke="#0A61FB" stroke-opacity="0.1" stroke-width="2"/>
<path d="M6.36803 135.891C6.7253 135.891 7.05543 136.082 7.23406 136.391L9.97071 141.131C10.1493 141.441 10.1493 141.822 9.97071 142.131L7.23406 146.871C7.05543 147.181 6.7253 147.371 6.36803 147.371L0.894731 147.371C0.537465 147.371 0.207337 147.181 0.0287044 146.871L-2.70795 142.131C-2.88658 141.822 -2.88658 141.441 -2.70795 141.131L0.0287044 136.391C0.207337 136.082 0.537465 135.891 0.89473 135.891L6.36803 135.891Z" stroke="#0A61FB" stroke-opacity="0.1" stroke-width="2"/>
</g>
<defs>
<clipPath id="clip0">
<rect width="218" height="218" fill="white"/>
</clipPath>
</defs>
</svg>
