<svg width="300" height="300" viewBox="0 0 300 300" fill="none" xmlns="http://www.w3.org/2000/svg">
<path d="M256.066 43.9336C227.735 15.6029 190.066 0 150 0C109.934 0 72.2654 15.6029 43.9336 43.9336C15.6029 72.2654 0 109.934 0 150C0 190.066 15.6029 227.735 43.9336 256.066C72.2654 284.397 109.934 300 150 300C190.066 300 227.735 284.397 256.066 256.066C284.397 227.735 300 190.066 300 150C300 109.934 284.397 72.2654 256.066 43.9336V43.9336ZM150 17.5781C185.371 17.5781 218.625 31.3523 243.636 56.3637C251.614 64.3412 258.443 73.1607 264.052 82.6172H150C117.789 82.6172 90.7887 105.338 84.1729 135.594L45.508 68.6238C48.8479 64.3529 52.4695 60.2578 56.3643 56.3637C81.375 31.3523 114.629 17.5781 150 17.5781V17.5781ZM199.805 150C199.805 177.462 177.462 199.805 150 199.805C122.538 199.805 100.195 177.462 100.195 150C100.195 122.538 122.538 100.195 150 100.195C177.462 100.195 199.805 122.538 199.805 150ZM17.5781 150C17.5781 126.819 23.4949 104.548 34.6131 84.91L91.2234 182.961C91.3008 183.094 91.3834 183.223 91.4666 183.35C103.085 203.664 124.97 217.383 150 217.383C157.122 217.383 163.989 216.268 170.438 214.211L131.775 281.176C103.315 277.282 77.0256 264.298 56.3637 243.636C31.3523 218.625 17.5781 185.371 17.5781 150V150ZM243.636 243.636C218.947 268.325 186.224 282.056 151.363 282.405L207.973 184.355C208.038 184.242 208.089 184.125 208.149 184.01C214.014 174.021 217.383 162.397 217.383 150C217.383 130.289 208.875 112.528 195.339 100.195H272.767C279.099 115.806 282.422 132.647 282.422 150C282.422 185.371 268.648 218.625 243.636 243.636V243.636Z" fill="white"/>
</svg>
