<svg width="300" height="300" viewBox="0 0 300 300" fill="none" xmlns="http://www.w3.org/2000/svg">
<path d="M207.656 6.38238C203.231 5.09207 198.469 7.14909 196.5 11.3192C194.512 15.4707 195.862 20.4636 199.687 23.0629C220.312 37.032 233.869 71.8704 237.45 103.044C232.725 96.7229 227.062 91.0568 220.612 86.2508C216.919 83.5019 211.725 83.8385 208.388 87.1298C205.106 90.4023 204.712 95.6009 207.487 99.3223C215.737 110.411 220.087 123.539 220.087 137.284C220.087 172.477 191.381 201.107 156.094 201.107C152.006 201.107 148.594 200.902 145.556 200.453C149.85 198.171 153.844 195.628 157.65 193.178C166.013 187.849 173.213 183.23 180.563 183.23C183.431 183.23 186.169 181.921 187.95 179.658C189.731 177.396 190.369 174.422 189.675 171.636C188.025 164.979 180.169 152.337 162.263 152.337C152.231 152.337 147.638 156.433 144.281 159.406C141.3 162.024 138.506 164.53 125.55 164.53C102.731 164.53 92.1188 151.926 92.1188 143.399C92.1188 141.192 93.9562 139.06 95.0437 137.957C97.8187 135.208 101.175 133.768 102.844 133.394C104.156 134.086 105.656 134.46 107.175 134.46C107.194 134.46 107.194 134.46 107.194 134.46C109.688 134.46 112.069 133.469 113.813 131.711C118.031 127.522 118.95 121.987 118.181 116.844L149.081 96.3115C152.531 94.0301 154.069 89.7665 152.869 85.8207C151.669 81.875 148.012 79.1822 143.887 79.1822H131.662C116.475 79.1822 111.075 75.8909 110.269 73.9648C108.375 69.4207 115.631 56.7794 126.075 46.3634C128.756 43.6705 129.562 39.6687 128.1 36.1718C126.656 32.6748 123.225 30.3934 119.437 30.3934C99.7875 30.3934 86.5313 44.2689 78.675 54.0865C70.8375 53.432 60.0187 53.7873 53.8125 54.4605C53.0437 53.4507 51.9 51.7677 50.4375 49.0562C45.975 40.6037 43.2188 31.3097 43.2188 27.551C43.2188 23.7735 40.9313 20.3514 37.425 18.9115C33.9188 17.4529 29.8875 18.2383 27.2062 20.9311C10.7625 37.3312 10.4063 60.9121 16.4813 75.2177C5.68125 96.218 0 119.705 0 143.399C0 225.885 67.2938 293 150 293C234.113 293 300 229.962 300 149.495V137.302C300 61.0243 250.275 19.1172 207.656 6.38238ZM281.25 149.495C281.25 220.649 224.813 274.3 150 274.3C77.625 274.3 18.75 215.563 18.75 143.399C18.75 122.249 23.925 101.286 34.3312 81.3327C36.9562 78.1724 37.2187 73.6282 34.9125 70.15C33.0562 67.3824 31.2188 60.9121 31.7813 53.5816C32.4563 55.0589 33.1688 56.4802 33.8813 57.8079C36.5063 62.6886 43.4812 75.7039 54.3562 73.2168C58.6875 72.1883 76.2375 72.1696 78.675 72.5623C82.6313 74.4323 87.45 73.3477 90.1313 69.8508C90.15 69.8321 91.275 68.3548 91.2937 68.3361C91.425 68.1865 91.5375 68.0182 91.6687 67.8499C90.9187 72.3379 91.1625 76.8447 92.9437 81.1083C96.8812 90.5706 106.2 94.7033 114.994 96.4985L101.981 105.138C98.6438 107.363 97.1813 111.496 98.1375 115.292C96.75 115.629 95.325 116.115 93.8625 116.695C83.6625 120.902 73.3688 130.776 73.3688 143.399C73.3688 162.978 92.8875 183.23 125.55 183.23C131.663 183.23 136.5 182.725 140.456 181.846C133.706 185.829 126.975 188.896 119.419 188.896C115.369 188.896 111.769 191.495 110.513 195.31C109.238 199.144 110.588 203.37 113.831 205.764C128.213 216.385 138.488 219.808 156.113 219.808C196.575 219.808 230.344 190.71 237.469 152.393C239.025 154.076 241.2 155.198 243.638 155.385C248.588 155.872 252.319 152.786 253.462 148.392C255.937 138.817 257.175 128.906 257.175 118.995C257.175 95.6009 251.137 67.2328 239.587 43.8949C263.044 62.726 281.25 93.2634 281.25 137.302V149.495Z" fill="white"/>
</svg>
