<svg width="300" height="300" viewBox="0 0 300 300" fill="none" xmlns="http://www.w3.org/2000/svg">
<g clip-path="url(#clip0)">
<path d="M242.261 142.03C233.853 104.301 200.099 76.3481 160.325 76.3481C120.522 76.3481 86.7899 104.333 78.3893 142.03C77.1676 147.513 81.343 152.731 86.9663 152.731H233.684C239.301 152.731 243.484 147.52 242.261 142.03ZM98.9182 135.153C109.249 110.091 133.609 93.9257 160.325 93.9257C187.078 93.9257 211.415 110.123 221.732 135.153H98.9182Z" fill="white"/>
<path d="M276.366 82.4866C284.452 52.9776 280.969 28.868 266.397 14.2952C249.342 -2.76324 219.967 -4.6189 183.682 9.0727C175.367 12.2104 166.882 16.0905 158.329 20.6356C121.768 21.1448 87.4707 35.6139 61.5617 61.527C35.6515 87.4407 21.1847 121.743 20.6761 158.309C3.01712 191.549 -12.2202 239.832 14.3368 266.392C31.5898 283.649 58.9794 282.822 82.5242 276.366C105.344 291.737 132.199 300 160.326 300C219.206 300 269.268 263.685 289.875 212.688C292.205 206.921 287.955 200.606 281.728 200.606H217.198C214.645 200.606 212.218 201.717 210.549 203.648C197.899 218.289 179.593 226.685 160.326 226.685C133.573 226.685 109.236 210.488 98.9187 185.457H290.204C294.639 185.457 298.38 182.152 298.925 177.75C299.639 171.996 300 166.127 300 160.306C300 132.172 291.737 105.311 276.366 82.4866ZM253.97 26.7241C261.931 34.6864 264.72 47.9022 262.221 64.7707C243.214 44.5237 219.262 30.6879 192.898 24.4184C220.514 14.6186 242.667 15.419 253.97 26.7241ZM120.448 44.8278C92.5238 65.6461 65.8753 92.2313 44.8648 120.422C56.8156 85.7221 84.5826 57.1834 120.448 44.8278ZM26.764 253.964C15.4601 242.658 14.6603 220.502 24.4589 192.884C30.7202 219.221 44.539 243.186 64.8054 262.216C47.9398 264.715 34.7251 261.926 26.764 253.964ZM282.194 167.88H86.9673C81.3505 167.88 77.1669 173.091 78.3904 178.581C86.7986 216.309 120.553 244.263 160.326 244.263C183.334 244.263 205.252 234.807 221.087 218.184H267.909C247.778 255.549 207.843 282.423 160.326 282.423C93.487 282.423 39.5392 228.96 38.2566 162.733C65.1183 114.269 114.2 65.1375 162.753 38.2184C194.458 38.8325 224.175 51.4641 246.664 73.9559C269.725 97.0213 282.426 127.688 282.426 160.306C282.425 162.826 282.348 165.357 282.194 167.88Z" fill="white"/>
</g>
<defs>
<clipPath id="clip0">
<rect width="300" height="300" fill="white"/>
</clipPath>
</defs>
</svg>
