<svg width="300" height="300" viewBox="0 0 300 300" fill="none" xmlns="http://www.w3.org/2000/svg">
<path d="M212.5 99.9626C212.5 100.632 212.332 101.291 212.011 101.878L181.631 157.57C180.115 160.349 176.124 160.349 174.608 157.569L89.8119 2.08484C89.111 0.799656 87.7641 0 86.3002 0H4C1.79086 0 0 1.79086 0 4V20.7923C0 21.4257 0.15041 22.05 0.438852 22.6139L24.5611 69.7719C24.8496 70.3358 25 70.9602 25 71.5935V271C25 273.209 23.2091 275 21 275H4C1.79086 275 0 276.791 0 279V296C0 298.209 1.79086 300 4 300H71C73.2091 300 75 298.209 75 296V279C75 276.791 73.2091 275 71 275H54C51.7909 275 50 273.209 50 271V136.117C50 131.916 55.6481 130.556 57.5612 134.296L108.594 234.07L134.072 283.886C135.535 286.747 139.605 286.802 141.144 283.981L192.357 190.133C192.36 190.128 192.36 190.121 192.358 190.115V190.115C192.356 190.11 192.357 190.103 192.36 190.098L204.989 166.949C206.973 163.311 212.5 164.721 212.5 168.864V296C212.5 298.209 214.291 300 216.5 300H296C298.209 300 300 298.209 300 296V4C300 1.79086 298.209 0 296 0H216.5C214.291 0 212.5 1.79086 212.5 4V99.9626ZM162.832 188.197C163.483 189.391 163.483 190.834 162.832 192.028L141.858 230.478C140.319 233.3 136.249 233.246 134.785 230.384L57.6324 79.538L32.7696 30.8182C31.4114 28.1568 33.3445 25 36.3325 25H71.4564C72.9203 25 74.2673 25.7997 74.9682 27.0849L162.832 188.197ZM237.5 29C237.5 26.7909 239.291 25 241.5 25H271C273.209 25 275 26.7909 275 29V271C275 273.209 273.209 275 271 275H241.5C239.291 275 237.5 273.209 237.5 271V29Z" fill="white"/>
</svg>
