<svg width="300" height="300" viewBox="0 0 300 300" fill="none" xmlns="http://www.w3.org/2000/svg">
<path d="M174.809 170.482L124.317 108.656C119.114 102.284 108.72 105.964 108.72 114.215V176.448C108.72 181.305 112.661 185.238 117.509 185.238C117.597 185.238 117.687 185.236 117.775 185.233C133.819 184.748 150.626 184.589 167.879 184.83C175.316 184.956 179.53 176.263 174.809 170.482ZM130.387 167.342C128.144 167.384 126.298 165.58 126.298 163.336V150.094C126.298 146.333 131.018 144.651 133.396 147.564L144.068 160.632C146.199 163.241 144.348 167.161 140.979 167.193C137.448 167.226 133.914 167.276 130.387 167.342Z" fill="white"/>
<path d="M278.294 202.723C224.98 196.126 169.18 194.163 117.233 195.793C112.489 195.942 108.72 199.832 108.72 204.578V211.857C108.72 216.711 112.655 220.647 117.509 220.647H118.779C120.988 220.647 122.779 222.437 122.779 224.647V227.186C122.779 229.395 120.988 231.186 118.779 231.186H88.122C85.9128 231.186 84.122 229.395 84.122 227.186V224.647C84.122 222.437 85.9128 220.647 88.122 220.647H89.3913C94.2452 220.647 98.1804 216.711 98.1804 211.857V205.815C98.1804 203.397 97.1843 201.086 95.4259 199.425C93.6675 197.764 91.3038 196.905 88.8886 197.04C65.9052 198.358 43.363 200.421 21.8872 203.17C15.9253 203.933 12.4677 210.339 15.105 215.743C38.921 264.537 89.4628 300 150 300C209.346 300 260.764 265.603 285.126 215.275C287.746 209.861 284.265 203.462 278.294 202.723ZM150 282.422C104.037 282.422 64.064 259.197 40.3656 224.342C38.7193 221.921 40.292 218.686 43.2036 218.378C49.4746 217.714 55.8189 217.108 62.2222 216.561C64.55 216.363 66.5438 218.202 66.5438 220.539V239.975C66.5438 244.829 70.479 248.764 75.3329 248.764H131.568C136.422 248.764 140.357 244.829 140.357 239.975V216.855C140.357 214.662 142.123 212.877 144.316 212.862C182.248 212.603 220.267 214.258 257.028 218.012C259.941 218.31 261.525 221.54 259.887 223.968C236.089 259.226 195.908 282.422 150 282.422Z" fill="white"/>
<path d="M150 0C67.0828 0 0 67.0951 0 150C0 162.507 1.54277 174.956 4.58496 187C5.68066 191.339 9.86133 194.157 14.2863 193.556C38.4053 190.288 63.8391 187.893 89.8828 186.437C94.5387 186.176 98.1809 182.324 98.1809 177.661V88.142C98.1809 83.2881 94.2457 79.3529 89.3918 79.3529H88.4781C86.269 79.3529 84.4781 77.5621 84.4781 75.3529V72.8137C84.4781 70.6045 86.269 68.8137 88.4781 68.8137H111.454C112.653 68.8137 113.788 69.3514 114.548 70.2787L175.799 145.041C180.997 151.384 191.36 147.734 191.387 139.5L191.556 88.1701C191.571 83.3068 187.631 79.3523 182.767 79.3523H181.222C179.013 79.3523 177.222 77.5615 177.222 75.3523V72.8131C177.222 70.604 179.013 68.8131 181.222 68.8131H211.879C214.088 68.8131 215.879 70.6039 215.879 72.8131V75.3523C215.879 77.5615 214.088 79.3523 211.879 79.3523H210.884C206.039 79.3523 202.108 83.2728 202.095 88.1174L201.851 177.437C201.839 182.122 205.502 185.993 210.181 186.238C236.222 187.601 261.689 189.903 285.875 193.079C290.307 193.664 294.468 190.826 295.548 186.491C298.501 174.636 300 162.359 300 150C300 67.0828 232.905 0 150 0ZM280.785 170.936C280.456 173.021 278.516 174.435 276.42 174.188C259.168 172.152 241.355 170.545 223.221 169.388C221.105 169.253 219.456 167.498 219.461 165.378L219.637 100.92C219.643 98.7153 221.432 96.9311 223.637 96.9311H224.667C229.521 96.9311 233.456 92.9959 233.456 88.142V60.0246C233.456 55.1707 229.521 51.2355 224.667 51.2355H168.432C163.578 51.2355 159.643 55.1707 159.643 60.0246V88.142C159.643 92.9959 163.578 96.9311 168.432 96.9311H169.934C172.148 96.9311 173.941 98.7299 173.934 100.944L173.925 103.837C173.912 107.588 169.208 109.26 166.83 106.359L124.308 54.4547C122.638 52.4168 120.143 51.2355 117.509 51.2355H75.6879C70.834 51.2355 66.8988 55.1707 66.8988 60.0246V88.142C66.8988 92.9959 70.834 96.9311 75.6879 96.9311H76.6016C78.8107 96.9311 80.6016 98.7219 80.6016 100.931V165.629C80.6016 167.739 78.962 169.486 76.8565 169.628C58.7095 170.85 40.9019 172.523 23.6704 174.626C21.5744 174.881 19.6284 173.474 19.2917 171.389C18.1528 164.339 17.5781 157.181 17.5781 150C17.5781 76.7994 76.81 17.5781 150 17.5781C223.201 17.5781 282.422 76.81 282.422 150C282.422 157.039 281.873 164.044 280.785 170.936Z" fill="white"/>
</svg>
