<svg width="300" height="300" viewBox="0 0 300 300" fill="none" xmlns="http://www.w3.org/2000/svg">
<path d="M169.984 267.447C188.127 262.373 203.855 249.985 215.67 233.508C231.323 211.679 240.692 182.032 240.692 149.747C240.692 117.462 231.323 87.819 215.67 65.9945C203.851 49.5158 188.118 37.1299 169.97 32.0606C176.439 30.7028 183.104 29.9965 189.905 30H189.91C209.549 30 227.972 35.8968 243.881 46.2615C272.214 71.7902 290 108.693 290 149.747C290 190.8 272.215 227.703 243.88 253.252C227.971 263.616 209.548 269.512 189.91 269.512C183.112 269.512 176.45 268.804 169.984 267.447Z" stroke="white" stroke-width="20"/>
<path d="M142.787 289.843L142.78 289.842C68.9076 286.363 10 225.106 10 150C10 72.6492 72.4645 10 149.426 10H149.427H149.428H149.429H149.431H149.432H149.433H149.434H149.435H149.436H149.437H149.438H149.439H149.44H149.441H149.443H149.444H149.445H149.446H149.447H149.448H149.449H149.45H149.451H149.452H149.454H149.455H149.456H149.457H149.458H149.459H149.46H149.461H149.462H149.463H149.464H149.466H149.467H149.468H149.469H149.47H149.471H149.472H149.473H149.474H149.475H149.476H149.478H149.479H149.48H149.481H149.482H149.483H149.484H149.485H149.486H149.487H149.489H149.49H149.491H149.492H149.493H149.494H149.495H149.496H149.497H149.498H149.499H149.501H149.502H149.503H149.504H149.505H149.506H149.507H149.508H149.509H149.51H149.512H149.513H149.514H149.515H149.516H149.517H149.518H149.519H149.52H149.521H149.522H149.524H149.525H149.526H149.527H149.528H149.529H149.53H149.531H149.532H149.533H149.534H149.536H149.537H149.538H149.539H149.54H149.541H149.542H149.543H149.544H149.545H149.547H149.548H149.549H149.55H149.551H149.552H149.553H149.554H149.555H149.556H149.557H149.559H149.56H149.561H149.562H149.563H149.564H149.565H149.566H149.567H149.568H149.57H149.571H149.572H149.573H149.574H149.575H149.576H149.577H149.578H149.579H149.58H149.582H149.583H149.584H149.585H149.586H149.587H149.588H149.589H149.59H149.591H149.592H149.594H149.595H149.596H149.597H149.598H149.599H149.6H149.601H149.602H149.603H149.605H149.606H149.607H149.608H149.609H149.61H149.611H149.612H149.613H149.614H149.615H149.617H149.618H149.619H149.62H149.621H149.622H149.623H149.624H149.625H149.626H149.628H149.629H149.63H149.631H149.632H149.633H149.634H149.635H149.636H149.637H149.638H149.64H149.641H149.642H149.643H149.644H149.645H149.646H149.647H149.648H149.649H149.65H149.652H149.653H149.654H149.655H149.656H149.657H149.658H149.659H149.66H149.661H149.663H149.664H149.665H149.666H149.667H149.668H149.669H149.67H149.671H149.672H149.673H149.675H149.676H149.677H149.678H149.679H149.68H149.681H149.682H149.683H149.684H149.686H149.687H149.688H149.689H149.69H149.691H149.692H149.693H149.694H149.695H149.696H149.698H149.699H149.7H149.701H149.702H149.703H149.704H149.705H149.706H149.707H149.708H149.71H149.711H149.712H149.713H149.714H149.715H149.716H149.717H149.718H149.719H149.721H149.722H149.723H149.724H149.725H149.726H149.727H149.728H149.729H149.73H149.731H149.733H149.734H149.735H149.736H149.737H149.738H149.739H149.74H149.741H149.742H149.744H149.745H149.746H149.747H149.748H149.749H149.75H149.751H149.752H149.753H149.754H149.756H149.757H149.758H149.759H149.76H149.761H149.762H149.763H149.764H149.765H149.766H149.768H149.769H149.77H149.771H149.772H149.773H149.774H149.775H149.776H149.777H149.779H149.78H149.781H149.782H149.783H149.784H149.785H149.786H149.787H149.788H149.789H149.791H149.792H149.793H149.794H149.795H149.796H149.797H149.798H149.799H149.8H149.802H149.803H149.804H149.805H149.806H149.807H149.808H149.809H149.81H149.811H149.812H149.814H149.815H149.816H149.817H149.818H149.819H149.82H149.821H149.822H149.823H149.825H149.826H149.827H149.828H149.829H149.83H149.831H149.832H149.833H149.834H149.835H149.837H149.838H149.839H149.84H149.841H149.842H149.843H149.844H149.845H149.846H149.847H149.849H149.85H149.851H149.852H149.853H149.854H149.855H149.856H149.857H149.858H149.86H149.861H149.862H149.863H149.864H149.865H149.866H149.867H149.868H149.869H149.87H149.872H149.873H149.874H149.875H149.876H149.877H149.878H149.879H149.88H149.881H149.883H149.884H149.885H149.886H149.887H149.888H149.889H149.89H149.891H149.892H149.893H149.895H149.896H149.897H149.898H149.899H149.9H149.901H149.902H149.903H149.904H149.905H149.907H149.908H149.909H149.91H149.911H149.912H149.913H149.914H149.915H149.916H149.918H149.919H149.92H149.921H149.922H149.923H149.924H149.925H149.926H149.927H149.928H149.93H149.931H149.932H149.933H149.934H149.935H149.936H149.937H149.938H149.939H149.941H149.942H149.943H149.944H149.945H149.946H149.947H149.948H149.949H149.95H149.951H149.953H149.954H149.955H149.956H149.957H149.958H149.959H149.96H149.961H149.962H149.964H149.965H149.966H149.966C156.641 10.0272 163.205 10.5248 169.626 11.4615C138.691 16.7286 111.603 34.3163 92.4344 59.2048C74.3305 80.7648 63.0572 111.932 62.2874 146.251L62.2849 146.363V146.475V146.476V146.476V146.477V146.478V146.48V146.481V146.483V146.484V146.486V146.488V146.49V146.493V146.495V146.498V146.5V146.503V146.506V146.51V146.513V146.516V146.52V146.524V146.528V146.532V146.536V146.54V146.545V146.549V146.554V146.559V146.564V146.569V146.574V146.58V146.585V146.591V146.597V146.603V146.609V146.615V146.621V146.628V146.635V146.641V146.648V146.655V146.662V146.67V146.677V146.684V146.692V146.7V146.708V146.716V146.724V146.732V146.741V146.749V146.758V146.766V146.775V146.784V146.793V146.803V146.812V146.821V146.831V146.841V146.85V146.86V146.87V146.88V146.891V146.901V146.911V146.922V146.933V146.944V146.954V146.965V146.977V146.988V146.999V147.011V147.022V147.034V147.045V147.057V147.069V147.081V147.093V147.106V147.118V147.131V147.143V147.156V147.168V147.181V147.194V147.207V147.22V147.234V147.247V147.26V147.274V147.287V147.301V147.315V147.329V147.343V147.357V147.371V147.385V147.399V147.414V147.428V147.443V147.458V147.472V147.487V147.502V147.517V147.532V147.547V147.562V147.578V147.593V147.608V147.624V147.64V147.655V147.671V147.687V147.703V147.719V147.735V147.751V147.767V147.784V147.8V147.816V147.833V147.849V147.866V147.883V147.899V147.916V147.933V147.95V147.967V147.984V148.001V148.019V148.036V148.053V148.071V148.088V148.106V148.123V148.141V148.159V148.176V148.194V148.212V148.23V148.248V148.266V148.284V148.302V148.32V148.339V148.357V148.375V148.394V148.412V148.431V148.449V148.468V148.487V148.505V148.524V148.543V148.562V148.58V148.599V148.618V148.637V148.656V148.676V148.695V148.714V148.733V148.752V148.772V148.791V148.81V148.83V148.849V148.869V148.888V148.908V148.927V148.947V148.966V148.986V149.006V149.025V149.045V149.065V149.085V149.105V149.125V149.144V149.164V149.184V149.204V149.224V149.244V149.264V149.284V149.304V149.325V149.345V149.365V149.385V149.405V149.425V149.446V149.466V149.486V149.506V149.527V149.547V149.567V149.588V149.608V149.628V149.649V149.669V149.689V149.71V149.73V149.751V149.771V149.791V149.812V149.832V149.853V149.873V149.894V149.914V149.935V149.955V149.975V149.996V150.016V150.037V150.057V150.078V150.098V150.119V150.139V150.16V150.18V150.2V150.221V150.241V150.262V150.282V150.303V150.323V150.343V150.364V150.384V150.404V150.425V150.445V150.465V150.486V150.506V150.526V150.547V150.567V150.587V150.607V150.627V150.648V150.668V150.688V150.708V150.728V150.748V150.768V150.788V150.808V150.828V150.848V150.868V150.888V150.908V150.928V150.948V150.967V150.987V151.007V151.027V151.046V151.066V151.085V151.105V151.125V151.144V151.164V151.183V151.202V151.222V151.241V151.26V151.28V151.299V151.318V151.337V151.356V151.375V151.394V151.413V151.432V151.451V151.47V151.489V151.508V151.526V151.545V151.564V151.582V151.601V151.619V151.638V151.656V151.674V151.693V151.711V151.729V151.747V151.765V151.783V151.801V151.819V151.837V151.855V151.872V151.89V151.908V151.925V151.943V151.96V151.977V151.995V152.012V152.029V152.046V152.063V152.08V152.097V152.114V152.131V152.147V152.164V152.181V152.197V152.214V152.23V152.246V152.263V152.279V152.295V152.311V152.327V152.343V152.358V152.374V152.39V152.405V152.421V152.436V152.452V152.467V152.482V152.497V152.512V152.527V152.542V152.557V152.571V152.586V152.6V152.615V152.629V152.643V152.657V152.672V152.686V152.699V152.713V152.727V152.741V152.754V152.767V152.781V152.794V152.807V152.82V152.833V152.846V152.859V152.872V152.884V152.897V152.909V152.921V152.934V152.946V152.958V152.969V152.981V152.993V153.004V153.016V153.027V153.039V153.05V153.061V153.072V153.082V153.093V153.104V153.114V153.125V153.135V153.145V153.155V153.165V153.175V153.185V153.194V153.204V153.213V153.222V153.231V153.24V153.249V153.258V153.267V153.275V153.284V153.292V153.3V153.308V153.316V153.324V153.332V153.339V153.347V153.354V153.361V153.368V153.375V153.382V153.389V153.395V153.401V153.408V153.414V153.42V153.426V153.431V153.437V153.443V153.448V153.453V153.458V153.463V153.468V153.472V153.477V153.481V153.486V153.49V153.494V153.497V153.501V153.505V153.508V153.511V153.514V153.517V153.52V153.523V153.525V153.527V153.53V153.532V153.534V153.535V153.537V153.538V153.54V153.541V153.542V153.543V153.543V153.544V153.653L62.2873 153.762C63.0374 188.103 74.3116 219.255 92.4361 240.816C111.594 265.69 138.663 283.271 169.576 288.549C162.997 289.505 156.27 290 149.426 290C147.192 290 144.979 289.947 142.787 289.843Z" stroke="white" stroke-width="20"/>
<path d="M90 223.5L100.776 233.672L108.202 242.032L122.228 253.737L195.368 279.811L242.104 262.568H249L232.144 272.757L201.498 290L124.704 265.441L103.251 247.885L90 223.5Z" fill="white"/>
<path d="M107.758 50.6667L121.582 38.1667L150.652 23.2716L150.857 23.1667L150.868 23.1774L171.846 14L214.923 17.0556L218 29.2778L154.923 27.3333L140.286 33.1667L127.275 41.5L112.637 53.1667L106.132 59.8333L101.253 65.6667L94.5 72L98.8132 64.8333L99.6484 64.7949L107.758 50.6667Z" fill="white"/>
</svg>
