<svg width="300" height="300" viewBox="0 0 300 300" fill="none" xmlns="http://www.w3.org/2000/svg">
<path d="M256.042 43.9578C197.438 -14.6479 102.572 -14.6573 43.958 43.9578C-14.6483 102.564 -14.6571 197.428 43.958 256.042C102.563 314.648 197.428 314.657 256.042 256.042C314.649 197.437 314.657 102.572 256.042 43.9578ZM249.774 234.665C242.767 228.399 235.272 222.854 227.372 218.076C232.594 200.039 235.687 180.19 236.419 159.557H280.509C278.516 187.368 267.83 213.457 249.774 234.665ZM19.4905 159.557H63.5809C64.3121 180.19 67.4057 200.039 72.6274 218.076C64.7272 222.854 57.2322 228.399 50.2254 234.665C32.1698 213.457 21.4846 187.368 19.4905 159.557V159.557ZM50.226 65.3353C57.2328 71.6009 64.7278 77.1458 72.628 81.9243C67.4063 99.9617 64.3127 119.811 63.5815 140.443H19.4905C21.4846 112.633 32.1698 86.5442 50.226 65.3353V65.3353ZM140.444 83.8996C124.858 82.7849 109.829 78.9461 95.8971 72.6131C104 51.7479 118.937 26.7224 140.444 20.5207V83.8996ZM140.444 103.049V140.444H82.7026C83.3642 122.99 85.8372 106.23 89.95 90.8953C105.783 97.8166 122.81 101.95 140.444 103.049V103.049ZM140.444 159.557V196.952C122.81 198.051 105.783 202.184 89.95 209.106C85.8372 193.771 83.3642 177.011 82.7026 159.557H140.444ZM140.444 216.101V279.48C118.939 273.278 104.001 248.255 95.8971 227.388C109.829 221.055 124.858 217.216 140.444 216.101ZM159.557 216.101C175.143 217.216 190.171 221.055 204.103 227.388C196 248.253 181.063 273.278 159.557 279.48V216.101ZM159.557 196.952V159.557H217.298C216.636 177.011 214.163 193.771 210.05 209.106C194.218 202.184 177.19 198.051 159.557 196.952ZM159.557 140.444V103.049C177.19 101.95 194.218 97.8166 210.05 90.8953C214.163 106.23 216.636 122.99 217.298 140.444H159.557ZM159.557 83.8996V20.5212C181.063 26.723 196 51.7485 204.103 72.6137C190.171 78.9461 175.143 82.7849 159.557 83.8996ZM202.483 30.0625C214.716 35.4194 226.129 42.6833 236.36 51.6958C231.49 55.9896 226.351 59.8829 220.985 63.3646C216.22 51.5664 210.133 40.1008 202.483 30.0625V30.0625ZM79.0142 63.3646C73.6485 59.8829 68.5105 55.9896 63.64 51.6958C73.871 42.6833 85.2839 35.4194 97.5171 30.0625C89.8663 40.102 83.7793 51.5676 79.0142 63.3646V63.3646ZM79.0148 236.636C83.7793 248.434 89.8675 259.9 97.5177 269.938C85.2845 264.581 73.8715 257.318 63.6406 248.305C68.5105 244.011 73.6491 240.118 79.0148 236.636V236.636ZM220.985 236.636C226.351 240.118 231.49 244.011 236.36 248.304C226.129 257.317 214.716 264.581 202.483 269.938C210.133 259.901 216.22 248.434 220.985 236.636ZM236.419 140.444C235.688 119.811 232.595 99.9617 227.373 81.9249C235.273 77.1464 242.767 71.6015 249.775 65.3359C267.83 86.5442 278.516 112.633 280.51 140.444H236.419Z" fill="white"/>
</svg>
