<svg width="300" height="300" viewBox="0 0 300 300" fill="none" xmlns="http://www.w3.org/2000/svg">
<path d="M163.195 161.296C163.394 161.158 163.566 160.985 163.703 160.785L210.827 92.009C212.083 90.1755 209.86 87.9675 208.035 89.2368L139.805 136.704C139.606 136.842 139.434 137.015 139.297 137.215L92.1729 205.991C90.9166 207.824 93.1404 210.033 94.9649 208.763L163.195 161.296Z" fill="white"/>
<path d="M161.44 160.271C162.325 161.167 163.807 161.032 164.516 159.992L210.848 92.0242C212.1 90.1877 209.871 87.9849 208.05 89.2587L140.942 136.185C139.927 136.895 139.795 138.348 140.665 139.229L161.44 160.271Z" fill="#DFDFDF"/>
<path d="M119.943 36.3205C119.114 36.3205 118.356 35.7674 118.131 34.9293L112.301 13.1728C112.033 12.1712 112.626 11.1425 113.628 10.8743C114.629 10.6008 115.659 11.2002 115.927 12.2012L121.757 33.9577C122.025 34.9593 121.431 35.988 120.43 36.2562C120.267 36.3001 120.103 36.3205 119.943 36.3205Z" fill="white" stroke="white" stroke-width="7"/>
<path d="M187.41 288.111C186.581 288.111 185.823 287.558 185.598 286.72L179.769 264.963C179.501 263.962 180.094 262.933 181.096 262.665C182.101 262.393 183.126 262.991 183.394 263.992L189.224 285.748C189.492 286.75 188.899 287.778 187.897 288.047C187.733 288.09 187.57 288.111 187.41 288.111Z" fill="white" stroke="white" stroke-width="7"/>
<path d="M82.4661 53.7974C81.8745 53.7974 81.2919 53.5184 80.9264 52.9972L68.0067 34.5463C67.4133 33.6967 67.6189 32.5267 68.4678 31.9321C69.3204 31.3363 70.4885 31.545 71.0825 32.3933L84.0022 50.8442C84.5956 51.6937 84.39 52.8637 83.5411 53.4583C83.2128 53.6874 82.8371 53.7974 82.4661 53.7974Z" fill="white" stroke="white" stroke-width="7"/>
<path d="M231.982 267.328C231.391 267.328 230.808 267.049 230.443 266.528L217.524 248.077C216.93 247.227 217.136 246.058 217.985 245.463C218.837 244.867 220.005 245.076 220.599 245.924L233.518 264.375C234.111 265.224 233.906 266.394 233.057 266.989C232.729 267.218 232.353 267.328 231.982 267.328Z" fill="white" stroke="white" stroke-width="7"/>
<path d="M53.2197 83.0389C52.8481 83.0389 52.473 82.9289 52.1447 82.6992L33.6944 69.7801C32.8455 69.1861 32.6398 68.0156 33.2333 67.166C33.8291 66.3165 34.9972 66.1103 35.848 66.7049L54.2983 79.6234C55.1472 80.2174 55.3528 81.3879 54.7594 82.2375C54.3939 82.7593 53.8113 83.0389 53.2197 83.0389Z" fill="white" stroke="white" stroke-width="7"/>
<path d="M266.752 232.556C266.38 232.556 266.005 232.446 265.677 232.216L247.226 219.297C246.377 218.703 246.172 217.533 246.765 216.683C247.361 215.835 248.528 215.628 249.38 216.222L267.831 229.141C268.68 229.735 268.885 230.906 268.292 231.755C267.926 232.276 267.344 232.556 266.752 232.556Z" fill="white" stroke="white" stroke-width="7"/>
<path d="M35.7462 120.519C35.5863 120.519 35.4227 120.499 35.2592 120.454L13.5022 114.625C12.4999 114.357 11.9065 113.327 12.1753 112.326C12.4428 111.325 13.4703 110.728 14.4737 110.999L36.2308 116.829C37.233 117.097 37.8264 118.126 37.5577 119.127C37.3328 119.966 36.5741 120.519 35.7462 120.519Z" fill="white" stroke="white" stroke-width="7"/>
<path d="M287.537 187.986C287.377 187.986 287.213 187.966 287.05 187.921L265.293 182.091C264.291 181.823 263.697 180.794 263.966 179.793C264.234 178.792 265.261 178.196 266.265 178.466L288.022 184.296C289.024 184.564 289.617 185.593 289.348 186.594C289.125 187.434 288.365 187.986 287.537 187.986Z" fill="white" stroke="white" stroke-width="7"/>
<path d="M9.70056 163.679C8.7374 163.679 7.91793 162.943 7.83316 161.966C7.74298 160.934 8.50653 160.023 9.53883 159.933L31.9771 157.97C33.0262 157.88 33.9208 158.645 34.0104 159.676C34.1006 160.709 33.337 161.62 32.3047 161.71L9.8665 163.673C9.81058 163.677 9.75467 163.679 9.70056 163.679Z" fill="white" stroke="white" stroke-width="7"/>
<path d="M269.383 140.959C268.42 140.959 267.6 140.223 267.515 139.246C267.425 138.213 268.189 137.303 269.222 137.213L291.66 135.25C292.699 135.153 293.602 135.925 293.693 136.956C293.783 137.989 293.02 138.899 291.987 138.99L269.548 140.953C269.492 140.957 269.436 140.959 269.383 140.959Z" fill="white" stroke="white" stroke-width="7"/>
<path d="M22.4307 211.18C21.7237 211.18 21.0467 210.779 20.7286 210.096C20.291 209.157 20.6968 208.04 21.6371 207.602L42.051 198.083C42.9859 197.646 44.1066 198.052 44.5449 198.991C44.9832 199.93 44.5768 201.047 43.6364 201.485L23.2225 211.004C22.967 211.123 22.6964 211.18 22.4307 211.18Z" fill="white" stroke="white" stroke-width="7"/>
<path d="M258.682 101.014C257.975 101.014 257.298 100.613 256.98 99.9304C256.542 98.9913 256.948 97.8743 257.887 97.4366L278.3 87.918C279.24 87.4809 280.357 87.8867 280.795 88.8258C281.233 89.765 280.827 90.882 279.888 91.3197L259.474 100.838C259.218 100.958 258.948 101.014 258.682 101.014Z" fill="white" stroke="white" stroke-width="7"/>
<path d="M50.6371 251.463C50.1573 251.463 49.6763 251.279 49.3102 250.913C48.5773 250.181 48.5773 248.992 49.3102 248.259L65.2372 232.332C65.97 231.599 67.1581 231.599 67.8916 232.332C68.6244 233.064 68.6244 234.253 67.8916 234.986L51.9646 250.913C51.5978 251.279 51.1168 251.463 50.6371 251.463Z" fill="white" stroke="white" stroke-width="7"/>
<path d="M234.962 67.1391C234.482 67.1391 234.002 66.9557 233.635 66.5896C232.902 65.8573 232.902 64.668 233.635 63.9352L249.562 48.0082C250.295 47.2753 251.483 47.2753 252.217 48.0082C252.95 48.7405 252.95 49.9297 252.217 50.6626L236.29 66.5896C235.922 66.9551 235.442 67.1391 234.962 67.1391Z" fill="white" stroke="white" stroke-width="7"/>
<path d="M90.9192 279.67C90.6534 279.67 90.3835 279.613 90.1262 279.493C89.1871 279.055 88.7806 277.938 89.2189 276.999L98.7381 256.585C99.1752 255.646 100.294 255.24 101.233 255.678C102.172 256.115 102.578 257.232 102.14 258.171L92.6206 278.585C92.3032 279.268 91.6262 279.67 90.9192 279.67Z" fill="white" stroke="white" stroke-width="7"/>
<path d="M201.086 43.4191C200.82 43.4191 200.55 43.3625 200.293 43.2423C199.354 42.8046 198.947 41.6875 199.385 40.7484L208.904 20.3345C209.341 19.3948 210.46 18.989 211.398 19.4267C212.338 19.8643 212.744 20.9814 212.306 21.9205L202.787 42.3345C202.469 43.018 201.792 43.4191 201.086 43.4191Z" fill="white" stroke="white" stroke-width="7"/>
<path d="M138.423 292.398C138.369 292.398 138.313 292.395 138.258 292.39C137.225 292.3 136.461 291.389 136.552 290.356L138.515 267.918C138.604 266.886 139.514 266.118 140.547 266.212C141.58 266.302 142.344 267.212 142.254 268.245L140.291 290.683C140.205 291.661 139.386 292.398 138.423 292.398Z" fill="white" stroke="white" stroke-width="7"/>
<path d="M161.142 32.7156C161.088 32.7156 161.032 32.7132 160.977 32.7078C159.944 32.6176 159.18 31.7079 159.271 30.6744L161.233 8.23618C161.323 7.20388 162.224 6.43492 163.266 6.52991C164.299 6.62009 165.063 7.52974 164.972 8.56324L163.009 31.0015C162.925 31.9797 162.106 32.7156 161.142 32.7156Z" fill="white" stroke="white" stroke-width="7"/>
<circle cx="150" cy="150" r="144" stroke="white" stroke-width="12"/>
</svg>
