<svg width="1366" height="1572" viewBox="0 0 1366 1572" fill="none" xmlns="http://www.w3.org/2000/svg">
<g clip-path="url(#clip0)">
<path d="M679 0.5C679 68.1549 624.155 123 556.5 123C488.845 123 434 68.1549 434 0.5C434 -67.1549 488.845 -122 556.5 -122C624.155 -122 679 -67.1549 679 0.5ZM483.261 0.5C483.261 40.949 516.051 73.7393 556.5 73.7393C596.949 73.7393 629.739 40.949 629.739 0.5C629.739 -39.949 596.949 -72.7393 556.5 -72.7393C516.051 -72.7393 483.261 -39.949 483.261 0.5Z" fill="#0A61FB" fill-opacity="0.1"/>
<path d="M248.307 593.634C251.03 603.39 250.456 613.772 246.676 623.17C242.895 632.567 236.118 640.453 227.397 645.605C218.676 650.757 208.498 652.887 198.443 651.663C188.388 650.439 179.018 645.931 171.787 638.838C164.556 631.744 159.868 622.462 158.452 612.433C157.036 602.403 158.969 592.186 163.953 583.368C168.937 574.549 176.692 567.622 186.015 563.662C195.337 559.701 205.707 558.929 215.514 561.464L210.884 579.373C205.021 577.857 198.821 578.319 193.247 580.687C187.673 583.055 183.037 587.196 180.057 592.469C177.077 597.741 175.921 603.849 176.768 609.846C177.615 615.842 180.417 621.392 184.741 625.633C189.064 629.874 194.666 632.569 200.677 633.301C206.689 634.032 212.774 632.759 217.988 629.679C223.202 626.599 227.254 621.884 229.515 616.265C231.775 610.647 232.118 604.44 230.49 598.606L248.307 593.634Z" fill="#0A61FB" fill-opacity="0.1"/>
<path d="M1224.92 93.7196C1234.09 89.4311 1244.43 88.2915 1254.32 90.4775C1264.21 92.6636 1273.1 98.0531 1279.62 105.81C1286.13 113.566 1289.9 123.256 1290.35 133.376C1290.79 143.495 1287.89 153.479 1282.08 161.776C1276.27 170.074 1267.88 176.222 1258.22 179.267C1248.56 182.311 1238.16 182.082 1228.65 178.614C1219.13 175.146 1211.02 168.634 1205.58 160.088C1200.15 151.542 1197.68 141.44 1198.57 131.35L1217 132.976C1216.47 139.009 1217.94 145.048 1221.19 150.158C1224.44 155.267 1229.29 159.161 1234.98 161.234C1240.67 163.307 1246.88 163.444 1252.66 161.624C1258.44 159.804 1263.45 156.128 1266.92 151.167C1270.4 146.206 1272.13 140.237 1271.87 134.187C1271.6 128.137 1269.35 122.344 1265.45 117.706C1261.56 113.069 1256.24 109.846 1250.33 108.539C1244.42 107.232 1238.24 107.914 1232.75 110.478L1224.92 93.7196Z" fill="#0A61FB" fill-opacity="0.1"/>
<rect x="25.5781" y="90.5058" width="87" height="87" rx="21" transform="rotate(-12.5658 25.5781 90.5058)" fill="#0A61FB" fill-opacity="0.1"/>
<rect x="361" y="785.928" width="87" height="87" rx="21" transform="rotate(-12.5658 361 785.928)" fill="#0A61FB" fill-opacity="0.1"/>
<rect x="892.517" y="152" width="87" height="87" rx="21" transform="rotate(15 892.517 152)" fill="#0A61FB" fill-opacity="0.1"/>
<path d="M140.856 371.316L150.27 406.449C153.657 419.09 142.09 430.657 129.449 427.27L94.3157 417.856C81.675 414.469 77.4411 398.668 86.6948 389.414L112.414 363.695C121.668 354.441 137.469 358.675 140.856 371.316Z" stroke="#0A61FB" stroke-opacity="0.1" stroke-width="14"/>
<path d="M1069.26 353.347L1100.76 371.533C1112.09 378.077 1112.09 394.435 1100.76 400.978L1069.26 419.165C1057.92 425.708 1043.76 417.529 1043.76 404.442L1043.76 368.069C1043.76 354.983 1057.92 346.803 1069.26 353.347Z" stroke="#0A61FB" stroke-opacity="0.1" stroke-width="14"/>
<path d="M504.363 1093.82L513.777 1128.96C517.164 1141.6 505.597 1153.16 492.957 1149.78L457.823 1140.36C445.182 1136.98 440.949 1121.18 450.202 1111.92L475.922 1086.2C485.175 1076.95 500.976 1081.18 504.363 1093.82Z" stroke="#0A61FB" stroke-opacity="0.1" stroke-width="14"/>
<path d="M599.403 199.257L623.836 223.689C624.341 224.194 624.538 224.931 624.353 225.621L615.41 258.996C615.226 259.686 614.686 260.226 613.996 260.41L580.621 269.353C579.931 269.538 579.194 269.341 578.689 268.836L554.257 244.403C553.751 243.898 553.554 243.162 553.739 242.471L562.682 209.096C562.867 208.406 563.406 207.867 564.096 207.682L597.471 198.739C598.162 198.554 598.898 198.751 599.403 199.257Z" stroke="#0A61FB" stroke-opacity="0.1" stroke-width="14"/>
<path d="M1281.4 1418.26L1305.84 1442.69C1306.34 1443.19 1306.54 1443.93 1306.35 1444.62L1297.41 1478C1297.23 1478.69 1296.69 1479.23 1296 1479.41L1262.62 1488.35C1261.93 1488.54 1261.19 1488.34 1260.69 1487.84L1236.26 1463.4C1235.75 1462.9 1235.55 1462.16 1235.74 1461.47L1244.68 1428.1C1244.87 1427.41 1245.41 1426.87 1246.1 1426.68L1279.47 1417.74C1280.16 1417.55 1280.9 1417.75 1281.4 1418.26Z" stroke="#0A61FB" stroke-opacity="0.1" stroke-width="14"/>
<path d="M93.1136 1226.28L127.159 1232.18C127.863 1232.3 128.448 1232.79 128.695 1233.46L140.608 1265.9C140.855 1266.57 140.725 1267.32 140.267 1267.87L118.135 1294.4C117.677 1294.95 116.962 1295.21 116.258 1295.09L82.2124 1289.19C81.5083 1289.07 80.9229 1288.58 80.6765 1287.91L68.763 1255.48C68.5166 1254.81 68.6468 1254.05 69.1044 1253.51L91.2362 1226.97C91.6939 1226.42 92.4096 1226.16 93.1136 1226.28Z" stroke="#0A61FB" stroke-opacity="0.1" stroke-width="14"/>
<path d="M1205.69 664.762L1222.97 694.686C1223.33 695.304 1223.33 696.067 1222.97 696.686L1205.69 726.609C1205.34 727.228 1204.68 727.609 1203.96 727.609L1169.41 727.609C1168.69 727.609 1168.03 727.228 1167.68 726.609L1150.4 696.686C1150.04 696.067 1150.04 695.304 1150.4 694.686L1167.68 664.762C1168.03 664.143 1168.69 663.762 1169.41 663.762L1203.96 663.762C1204.68 663.762 1205.34 664.143 1205.69 664.762Z" stroke="#0A61FB" stroke-opacity="0.1" stroke-width="14"/>
<mask id="path-15-inside-1" fill="white">
<rect x="91" y="1538" width="99" height="99" rx="8"/>
</mask>
<rect x="91" y="1538" width="99" height="99" rx="8" stroke="#0A61FB" stroke-opacity="0.1" stroke-width="20" mask="url(#path-15-inside-1)"/>
<mask id="path-16-inside-2" fill="white">
<rect x="1070.62" y="997" width="99" height="99" rx="8" transform="rotate(15 1070.62 997)"/>
</mask>
<rect x="1070.62" y="997" width="99" height="99" rx="8" transform="rotate(15 1070.62 997)" stroke="#0A61FB" stroke-opacity="0.1" stroke-width="20" mask="url(#path-16-inside-2)"/>
<mask id="path-17-inside-3" fill="white">
<rect x="91" y="-44" width="99" height="99" rx="8"/>
</mask>
<rect x="91" y="-44" width="99" height="99" rx="8" stroke="#0A61FB" stroke-opacity="0.1" stroke-width="20" mask="url(#path-17-inside-3)"/>
<path d="M679 1571.5C679 1639.15 624.155 1694 556.5 1694C488.845 1694 434 1639.15 434 1571.5C434 1503.85 488.845 1449 556.5 1449C624.155 1449 679 1503.85 679 1571.5ZM483.261 1571.5C483.261 1611.95 516.051 1644.74 556.5 1644.74C596.949 1644.74 629.739 1611.95 629.739 1571.5C629.739 1531.05 596.949 1498.26 556.5 1498.26C516.051 1498.26 483.261 1531.05 483.261 1571.5Z" fill="#0A61FB" fill-opacity="0.1"/>
<path fill-rule="evenodd" clip-rule="evenodd" d="M120.92 908.138C119.86 904.709 121.78 901.069 125.21 900.008L157.692 889.964C161.122 888.904 164.762 890.824 165.823 894.254L173.946 920.527L200.219 912.403C203.649 911.342 207.289 913.263 208.349 916.692C209.41 920.122 207.489 923.762 204.059 924.823L171.577 934.867C168.147 935.927 164.507 934.007 163.447 930.577L155.323 904.304L129.05 912.428C125.621 913.489 121.981 911.568 120.92 908.138Z" fill="#0A61FB" fill-opacity="0.1"/>
<path fill-rule="evenodd" clip-rule="evenodd" d="M858.73 792.171C859.859 788.763 863.536 786.915 866.944 788.043L899.221 798.73C902.628 799.859 904.476 803.536 903.348 806.944L894.704 833.05L920.81 841.694C924.218 842.822 926.066 846.5 924.938 849.908C923.809 853.315 920.132 855.163 916.724 854.035L884.447 843.348C881.039 842.22 879.191 838.542 880.32 835.134L888.964 809.028L862.858 800.384C859.45 799.256 857.602 795.578 858.73 792.171Z" fill="#0A61FB" fill-opacity="0.1"/>
<path fill-rule="evenodd" clip-rule="evenodd" d="M615.531 692.454C614.673 689.254 611.383 687.354 608.182 688.212C604.981 689.069 603.082 692.359 603.94 695.56L607.045 707.151L595.454 710.257C592.254 711.115 590.354 714.405 591.212 717.606C592.069 720.806 595.359 722.706 598.56 721.848L610.151 718.742L613.257 730.333C614.115 733.534 617.405 735.434 620.606 734.576C623.806 733.718 625.706 730.428 624.848 727.228L621.742 715.637L633.333 712.531C636.534 711.673 638.434 708.383 637.576 705.182C636.718 701.981 633.428 700.082 630.228 700.94L618.637 704.045L615.531 692.454Z" fill="#0A61FB" fill-opacity="0.1"/>
<path fill-rule="evenodd" clip-rule="evenodd" d="M253.716 1375.95C255.401 1373.1 254.455 1369.42 251.602 1367.73C248.749 1366.05 245.07 1366.99 243.384 1369.84L237.28 1380.18L226.949 1374.07C224.096 1372.39 220.416 1373.33 218.731 1376.19C217.045 1379.04 217.992 1382.72 220.845 1384.4L231.176 1390.51L225.072 1400.84C223.386 1403.69 224.333 1407.37 227.186 1409.06C230.039 1410.74 233.718 1409.8 235.404 1406.94L241.508 1396.61L251.839 1402.72C254.692 1404.4 258.371 1403.46 260.057 1400.6C261.743 1397.75 260.796 1394.07 257.943 1392.38L247.612 1386.28L253.716 1375.95Z" fill="#0A61FB" fill-opacity="0.1"/>
<path fill-rule="evenodd" clip-rule="evenodd" d="M1002.46 1463.07C1005.33 1464.72 1009 1463.74 1010.66 1460.87C1012.31 1458 1011.33 1454.33 1008.46 1452.68L998.067 1446.68L1004.07 1436.28C1005.72 1433.41 1004.74 1429.74 1001.87 1428.09C999.001 1426.43 995.332 1427.41 993.675 1430.28L987.675 1440.68L977.283 1434.68C974.413 1433.02 970.743 1434 969.087 1436.87C967.43 1439.74 968.413 1443.41 971.283 1445.07L981.675 1451.07L975.675 1461.46C974.018 1464.33 975.001 1468 977.871 1469.66C980.741 1471.31 984.411 1470.33 986.067 1467.46L992.067 1457.07L1002.46 1463.07Z" fill="#0A61FB" fill-opacity="0.1"/>
<path fill-rule="evenodd" clip-rule="evenodd" d="M310.325 189.037C311.183 185.837 309.284 182.547 306.083 181.689C302.882 180.831 299.592 182.731 298.734 185.932L295.629 197.523L284.037 194.417C280.837 193.559 277.547 195.459 276.689 198.66C275.831 201.86 277.731 205.15 280.932 206.008L292.523 209.114L289.417 220.705C288.559 223.906 290.459 227.196 293.66 228.053C296.86 228.911 300.15 227.012 301.008 223.811L304.114 212.22L315.705 215.325C318.906 216.183 322.196 214.284 323.053 211.083C323.911 207.882 322.012 204.592 318.811 203.734L307.22 200.629L310.325 189.037Z" fill="#0A61FB" fill-opacity="0.1"/>
<path fill-rule="evenodd" clip-rule="evenodd" d="M876.193 438.426C877.879 435.573 876.932 431.894 874.079 430.208C871.226 428.523 867.547 429.469 865.862 432.322L859.757 442.653L849.426 436.549C846.573 434.864 842.894 435.81 841.208 438.663C839.523 441.516 840.469 445.195 843.322 446.881L853.653 452.985L847.549 463.316C845.864 466.169 846.81 469.849 849.663 471.534C852.516 473.22 856.195 472.273 857.881 469.421L863.985 459.089L874.316 465.193C877.169 466.879 880.849 465.932 882.534 463.079C884.22 460.226 883.273 456.547 880.42 454.862L870.089 448.757L876.193 438.426Z" fill="#0A61FB" fill-opacity="0.1"/>
<path d="M782.227 1102.31L798.495 1127.36C801.326 1131.72 806.643 1133.76 811.665 1132.42L840.516 1124.69C844.259 1123.68 847.099 1128.05 844.66 1131.07L825.863 1154.28C822.591 1158.32 822.293 1164.01 825.124 1168.37L841.392 1193.42C843.503 1196.67 840.222 1200.72 836.604 1199.33L808.719 1188.63C803.866 1186.76 798.364 1188.24 795.093 1192.28L776.296 1215.49C773.857 1218.5 768.99 1216.63 769.192 1212.76L770.756 1182.93C771.028 1177.74 767.926 1172.97 763.072 1171.1L735.187 1160.4C731.57 1159.01 731.843 1153.8 735.585 1152.8L764.437 1145.07C769.458 1143.72 773.042 1139.3 773.315 1134.11L774.878 1104.28C775.081 1100.41 780.117 1099.06 782.227 1102.31Z" stroke="#0A61FB" stroke-opacity="0.1" stroke-width="8"/>
</g>
<defs>
<clipPath id="clip0">
<rect width="1366" height="1572" fill="white"/>
</clipPath>
</defs>
</svg>
