<svg width="300" height="300" viewBox="0 0 300 300" fill="none" xmlns="http://www.w3.org/2000/svg">
<path d="M184.873 34.6849L197.489 13.6564C198.924 11.2615 198.151 8.15924 195.756 6.72433C193.356 5.28437 190.259 6.0574 188.824 8.45734L175.51 30.6479C167.583 27.8286 159.095 26.2118 150.213 26.2118C141.33 26.2118 132.842 27.8286 124.915 30.6479L111.601 8.45734C110.166 6.0574 107.064 5.28942 104.669 6.72433C102.274 8.15924 101.501 11.2615 102.936 13.6564L115.552 34.6849C91.164 47.2908 74.425 72.7049 74.425 102.004C74.425 104.798 76.6886 107.057 79.4775 107.057H220.947C223.736 107.057 226 104.798 226 102.004C225.995 72.71 209.261 47.2959 184.873 34.6849ZM84.722 96.9518C87.3089 63.0849 115.694 36.3219 150.213 36.3219C184.731 36.3219 213.116 63.0849 215.703 96.9518H84.722Z" fill="white" stroke="white" stroke-width="3"/>
<path d="M220.943 112.11H79.4727C76.6837 112.11 74.4202 114.369 74.4202 117.163V219.077C74.4202 232.532 85.379 243.475 98.8439 243.475H104.735V273.821C104.735 284.946 113.799 294 124.945 294C136.091 294 145.155 284.946 145.155 273.821V243.475H155.26V273.821C155.26 284.946 164.324 294 175.47 294C186.616 294 195.68 284.946 195.68 273.821V243.475H201.571C215.041 243.475 225.995 232.532 225.995 219.077V117.163C225.995 114.369 223.737 112.11 220.943 112.11ZM215.89 219.077C215.89 226.959 209.468 233.37 201.571 233.37H190.628C187.839 233.37 185.575 235.629 185.575 238.423V273.821C185.575 279.378 181.043 283.895 175.47 283.895C169.897 283.895 165.365 279.373 165.365 273.821V238.423C165.365 235.629 163.102 233.37 160.313 233.37H140.103C137.314 233.37 135.05 235.629 135.05 238.423V273.821C135.05 279.378 130.518 283.895 124.945 283.895C119.372 283.895 114.84 279.373 114.84 273.821V238.423C114.84 235.629 112.577 233.37 109.788 233.37H98.849C90.9519 233.37 84.5252 226.954 84.5252 219.077V122.215H215.89V219.077Z" fill="white" stroke="white" stroke-width="3"/>
<path d="M248.732 112.11C238.98 112.11 231.048 120.053 231.048 129.814V200.509C231.048 210.27 238.98 218.213 248.732 218.213C258.483 218.213 266.415 210.27 266.415 200.509V129.814C266.415 120.053 258.483 112.11 248.732 112.11ZM256.31 200.509C256.31 204.697 252.91 208.108 248.732 208.108C244.553 208.108 241.153 204.697 241.153 200.509V129.814C241.153 125.626 244.553 122.215 248.732 122.215C252.91 122.215 256.31 125.626 256.31 129.814V200.509Z" fill="white" stroke="white" stroke-width="3"/>
<path d="M51.6837 112.11C41.9324 112.11 34 120.053 34 129.814V200.509C34 210.27 41.9324 218.213 51.6837 218.213C61.4351 218.213 69.3675 210.27 69.3675 200.509V129.814C69.3675 120.053 61.4351 112.11 51.6837 112.11ZM59.2625 200.509C59.2625 204.697 55.8622 208.108 51.6837 208.108C47.5053 208.108 44.105 204.697 44.105 200.509V129.814C44.105 125.626 47.5053 122.215 51.6837 122.215C55.8622 122.215 59.2625 125.626 59.2625 129.814V200.509Z" fill="white" stroke="white" stroke-width="3"/>
<rect x="110.3" y="62" width="16" height="16" rx="8" fill="white"/>
<rect x="174" y="62" width="16" height="16" rx="8" fill="white"/>
</svg>
