<svg width="300" height="300" viewBox="0 0 300 300" fill="none" xmlns="http://www.w3.org/2000/svg">
<path d="M264.588 206.425C255.21 200.797 235.704 189.077 235.704 158.592C235.704 132.863 252.926 119.878 262.175 112.903L262.368 112.756C266.082 109.957 266.967 104.744 264.389 100.873C243.723 69.8489 208.231 68.9528 201.331 69.0816H201.29C196.557 69.0875 192.041 69.6322 187.759 70.4931C189.34 69.2281 190.875 67.881 192.351 66.4519C207.136 52.1495 215.261 31.0472 214.634 8.5393C214.499 3.78939 210.61 0 205.853 0C189.862 0 171.679 9.55254 158.4 24.9326C145.021 40.4299 138.771 58.9961 141.26 75.8639C141.465 77.2637 142.004 78.5405 142.777 79.6357C140.434 78.8509 137.957 77.9372 135.508 77.0353C126.206 73.609 115.656 69.7259 105.78 69.7259C105.581 69.7259 85.5009 69.8723 65.4499 82.324C47.912 93.2236 27 115.907 27 162.112C27 186.143 36.3899 219.784 50.9228 247.827C60.9629 267.202 81.7988 299.719 108.557 299.871H108.844C128.356 299.871 144.523 288.351 155.518 288.351C174.298 288.351 180.981 300 201.29 300C219.496 300 237.139 286.172 253.734 258.908C259.826 248.893 264.565 238.989 267.464 232.441C273 219.966 273 218.303 273 217.084C273 211.479 268.724 208.908 264.588 206.425ZM171.703 36.4121C178.914 28.0602 187.999 21.8637 196.604 19.1285C194.958 32.7691 189.194 45.0627 180.132 53.8245C173.782 59.9684 166.161 63.9628 158.423 65.3391C159.243 55.687 163.859 45.4961 171.703 36.4121ZM237.871 251.154C225.33 271.325 212.338 282.429 201.29 282.429C186.089 282.429 178.984 270.78 155.518 270.78C139.685 270.78 124.578 282.383 108.656 282.301C96.238 282.23 80.0942 265.925 66.5278 239.745C53.1898 214.015 44.5731 183.542 44.5731 162.112C44.5731 131.773 54.5488 110.062 74.2072 97.5753C89.5134 87.8587 105.171 87.314 105.833 87.2965C119.552 87.3316 138.595 99.4729 152.472 99.4729C164.966 99.4729 181.696 86.6522 201.354 86.6522H201.677C206.445 86.5585 228.956 87.0915 244.772 104.252C233.595 113.664 218.131 130.59 218.131 158.592C218.131 196.626 242.188 213.324 253.552 220.288C250.723 227.141 245.328 239.165 237.871 251.154Z" fill="white"/>
</svg>
