<svg width="300" height="300" viewBox="0 0 300 300" fill="none" xmlns="http://www.w3.org/2000/svg">
<path d="M248.484 223.714C241.274 220.773 238.189 216.867 238.487 211.041C238.794 204.24 234.922 199.26 233.083 197.291C234.194 193.063 237.441 178.435 233.087 165.729C228.408 152.13 214.122 131.36 199.382 110.943C193.347 102.558 193.062 93.4437 192.732 82.89C192.416 72.824 192.06 61.4143 186.426 48.7303C180.3 34.9194 168.009 27 152.702 27C143.596 27 134.249 29.8357 127.057 34.7792C112.327 44.9079 114.274 66.9909 115.563 81.6024C115.74 83.6035 115.905 85.4936 116.002 87.1072C116.86 101.419 116.08 108.962 115.059 111.254C114.399 112.753 111.148 117.016 107.708 121.531C104.151 126.2 100.117 131.492 96.8111 136.423C92.8663 142.357 89.6818 151.427 86.6025 160.197C84.3492 166.615 82.2207 172.677 80.1489 176.302C76.2219 183.271 77.1992 189.77 78.0147 192.773C76.5279 193.802 74.3802 195.829 72.5673 199.648C70.3759 204.306 65.9298 206.81 56.6846 208.581C52.4358 209.447 49.5063 211.227 47.9743 213.871C45.745 217.72 46.9596 222.556 48.067 225.861C49.7037 230.719 48.6837 233.793 46.8294 239.377C46.402 240.665 45.9174 242.124 45.4266 243.733C44.6534 246.273 44.9325 248.581 46.2536 250.595C49.745 255.913 59.9339 257.789 70.4225 259.023C76.6849 259.764 83.539 262.259 90.1683 264.673C96.6636 267.038 103.38 269.484 109.485 270.227C110.413 270.343 111.332 270.401 112.218 270.401C121.436 270.401 125.601 264.307 126.922 261.803C130.232 261.13 141.652 258.974 153.422 258.684C165.173 258.351 176.543 260.663 179.764 261.381C180.776 263.312 183.446 267.723 187.701 269.996C190.039 271.27 193.294 272 196.627 272C200.187 272 206.961 271.161 212.322 265.541C217.668 259.897 231.027 252.689 240.782 247.427C242.959 246.253 244.995 245.153 246.78 244.162C252.26 241.136 255.25 236.811 254.984 232.298C254.761 228.548 252.27 225.259 248.484 223.714ZM159.77 62.4077C165.082 62.4077 169.404 67.8891 169.404 74.6266C169.404 77.4302 168.627 80.1051 167.285 82.2311C167.643 81.0951 167.836 79.8653 167.836 78.5896C167.836 72.9556 164.249 68.5423 159.669 68.5423C155.193 68.5423 151.551 73.0494 151.551 78.5896C151.551 78.9681 151.57 79.3457 151.605 79.7232C151.368 79.6333 151.137 79.5443 150.911 79.4591C150.396 77.9039 150.135 76.2827 150.135 74.6266C150.136 67.8896 154.457 62.4077 159.77 62.4077ZM143.434 86.8928C145.458 87.2488 150.448 89.2337 154.094 90.6836C155.779 91.3535 157.234 91.9325 158.258 92.2981C161.482 93.4025 163.164 94.8156 163.368 95.3434C163.292 95.6846 163.128 95.8348 161.327 96.7684C160.418 97.2397 159.286 97.8264 157.87 98.6868L156.923 99.2581C153.119 101.556 144.213 106.937 141.796 107.252C140.153 107.472 139.138 106.837 136.854 105.291C136.339 104.942 135.791 104.571 135.206 104.197C131.089 101.505 128.441 98.5413 128.142 97.3823C129.484 96.3487 132.811 93.7609 134.515 92.2282C137.973 89.0246 141.452 86.8718 143.174 86.8718C143.265 86.8703 143.348 86.8765 143.434 86.8928ZM129.864 64.6706C133.774 64.6706 137.077 69.9199 137.077 76.1344C137.077 76.9182 137.02 77.6977 136.902 78.5298C136.662 78.6317 136.427 78.7428 136.196 78.859C136.172 78.3408 136.118 77.8173 136.035 77.2909C135.199 72.4914 132.004 69.0074 128.442 69.0074C128.178 69.0074 127.913 69.0275 127.622 69.0715C125.502 69.4232 123.84 71.009 122.929 73.259C123.729 68.324 126.535 64.6706 129.864 64.6706ZM117.953 251.485C117.111 255.428 112.63 258.635 111.573 259.344C111.19 259.43 110.715 259.475 110.156 259.475C104.024 259.475 91.8861 254.392 85.3649 251.661L84.4001 251.256C80.7584 249.736 74.8139 248.778 69.0648 247.85C64.4905 247.112 58.2266 246.102 57.1879 245.189C56.346 244.248 57.3223 241.189 58.1834 238.492C58.8034 236.553 59.4436 234.549 59.7942 232.45C60.2917 229.104 59.7072 226.377 59.238 224.187C58.8399 222.33 58.5253 220.864 58.863 219.444C59.1079 218.392 64.3214 217.265 66.5483 216.782C69.6786 216.104 72.9164 215.405 75.0333 214.124C77.8961 212.396 79.4463 209.21 80.8136 206.398C81.8034 204.366 82.8258 202.263 84.0423 201.573C84.111 201.532 84.2156 201.486 84.4154 201.486C86.6947 201.486 91.477 206.259 94.2326 210.533C94.9314 211.61 96.2261 213.768 97.724 216.268C102.204 223.737 108.338 233.967 111.542 237.395C114.429 240.476 119.102 246.403 117.953 251.485ZM184.475 199.283C183.445 204.184 183.336 219.861 183.324 223.384C181.223 226.043 170.599 238.568 155.344 240.82C149.131 241.72 143.329 242.176 138.1 242.176C133.631 242.176 130.778 241.832 129.594 241.654L121.929 232.915C124.951 231.427 127.972 228.29 127.177 222.628C126.495 217.841 120.313 213.092 113.155 207.594C107.303 203.099 100.668 198.003 98.8406 193.687C95.0634 184.786 98.041 169.132 103.232 161.072C105.797 157.036 107.893 150.916 109.919 144.998C112.107 138.607 114.37 131.999 116.901 129.106C120.909 124.59 124.613 115.803 125.269 108.878C129.021 112.447 134.843 116.978 140.221 116.978C141.049 116.978 141.853 116.87 142.621 116.654C146.3 115.595 151.712 112.479 156.946 109.467C161.458 106.869 167.023 103.665 169.116 103.374C172.706 108.51 193.567 154.507 195.698 169.278C197.385 180.966 195.603 190.628 194.707 194.412C193.987 194.314 193.127 194.235 192.225 194.235C186.414 194.235 184.875 197.395 184.475 199.283ZM242.78 233.537C241.564 234.645 237.282 236.824 233.141 238.93C225.796 242.667 217.47 246.903 213.731 250.821C208.467 256.342 202.512 260.05 198.917 260.05C198.484 260.05 198.09 259.995 197.739 259.884C193.835 258.672 190.621 253.058 192.348 245.051C194.168 236.872 196.264 225.748 195.925 219.188C195.847 217.699 195.714 216.077 195.586 214.508C195.347 211.577 194.991 207.219 195.358 205.926C195.431 205.892 195.511 205.864 195.601 205.839C195.616 209.588 196.433 217.068 202.436 219.676C204.225 220.453 206.27 220.847 208.513 220.847C214.526 220.847 221.198 217.909 223.931 215.185C225.54 213.582 226.894 211.62 227.842 210.066C228.048 210.671 228.176 211.462 228.109 212.48C227.752 218.011 230.449 225.348 235.583 228.052L236.33 228.444C238.159 229.399 243.015 231.94 243.094 233.145C243.091 233.145 243.051 233.286 242.78 233.537Z" fill="white" stroke="white"/>
</svg>
