<svg width="300" height="300" viewBox="0 0 300 300" fill="none" xmlns="http://www.w3.org/2000/svg">
<path d="M214.2 171.4H192.8V128.6H214.2C237.836 128.6 257 109.436 257 85.8C257 62.1637 237.836 43 214.2 43C190.561 43 171.4 62.1637 171.4 85.8V107.2H128.6V85.8C128.6 62.1637 109.436 43 85.8 43C62.1637 43 43 62.1637 43 85.8C43 109.436 62.1637 128.6 85.8 128.6H107.2V171.4H85.8C62.1637 171.4 43 190.564 43 214.2C43 237.836 62.1637 257 85.8 257C109.439 257 128.6 237.836 128.6 214.2V192.8H171.4V214.146C171.4 214.168 171.397 214.184 171.397 214.2C171.397 237.836 190.561 257 214.197 257C237.834 257 256.997 237.836 256.997 214.2C256.997 190.564 237.836 171.405 214.2 171.4ZM214.2 64.4C226.018 64.4 235.6 73.9818 235.6 85.8C235.6 97.6181 226.018 107.2 214.2 107.2H192.8V85.8C192.8 73.9818 202.382 64.4 214.2 64.4ZM64.4 85.8C64.4 73.9818 73.9818 64.4 85.8 64.4C97.6181 64.4 107.2 73.9818 107.2 85.8V107.2H85.8C73.9818 107.2 64.4 97.6155 64.4 85.8ZM85.8 235.6C73.9818 235.6 64.4 226.018 64.4 214.2C64.4 202.382 73.9818 192.8 85.8 192.8H107.2V214.2C107.2 226.018 97.6181 235.6 85.8 235.6ZM128.6 171.4V128.6H171.4V171.4H128.6ZM214.2 235.6C202.382 235.6 192.8 226.018 192.8 214.2V192.8H214.197C226.015 192.8 235.597 202.382 235.597 214.2C235.597 226.018 226.018 235.6 214.2 235.6Z" fill="white"/>
</svg>
