<svg width="300" height="300" viewBox="0 0 300 300" fill="none" xmlns="http://www.w3.org/2000/svg">
<path d="M127.711 202.295H155.921V200.885C156.391 171.734 163.914 159.04 184.602 146.11C205.289 133.533 217.514 115.431 217.514 89.4545C217.514 52.7812 190.714 25.9815 149.339 25.9815C111.255 25.9815 81.0466 49.4901 79.2834 89.4545H108.904C110.667 61.7145 130.062 50.4304 149.339 50.4304C171.437 50.4304 189.303 65.0057 189.303 88.044C189.303 106.733 178.607 120.133 164.854 128.479C141.816 142.466 128.064 156.101 127.711 200.885V202.295ZM142.756 271.881C154.393 271.881 163.914 262.36 163.914 250.723C163.914 239.086 154.393 229.565 142.756 229.565C131.12 229.565 121.599 239.086 121.599 250.723C121.599 262.36 131.12 271.881 142.756 271.881Z" fill="white"/>
<path d="M127.711 202.295H124.411C124.411 204.118 125.888 205.595 127.711 205.595V202.295ZM155.921 202.295V205.595C157.744 205.595 159.221 204.118 159.221 202.295H155.921ZM155.921 200.885L152.622 200.832C152.621 200.849 152.621 200.867 152.621 200.885H155.921ZM184.602 146.11L182.887 143.29C182.876 143.297 182.864 143.304 182.853 143.312L184.602 146.11ZM79.2834 89.4545L75.9866 89.3091C75.9469 90.2087 76.2766 91.0854 76.8991 91.736C77.5216 92.3866 78.383 92.7545 79.2834 92.7545V89.4545ZM108.904 89.4545V92.7545C110.645 92.7545 112.087 91.4016 112.198 89.6639L108.904 89.4545ZM164.854 128.479L163.142 125.658L163.142 125.658L164.854 128.479ZM127.711 200.885L124.411 200.859C124.411 200.868 124.411 200.876 124.411 200.885L127.711 200.885ZM127.711 205.595H155.921V198.995H127.711V205.595ZM159.221 202.295V200.885H152.621V202.295H159.221ZM159.221 200.938C159.452 186.598 161.42 176.742 165.588 168.975C169.735 161.247 176.259 155.216 186.351 148.908L182.853 143.312C172.257 149.934 164.676 156.715 159.772 165.854C154.889 174.954 152.861 186.021 152.622 200.832L159.221 200.938ZM186.316 148.93C207.851 135.837 220.814 116.736 220.814 89.4545H214.214C214.214 114.127 202.727 131.229 182.887 143.29L186.316 148.93ZM220.814 89.4545C220.814 70.2851 213.793 53.5283 201.215 41.5736C188.646 29.6266 170.749 22.6815 149.339 22.6815V29.2815C169.304 29.2815 185.494 35.7363 196.668 46.3575C207.835 56.971 214.214 71.9507 214.214 89.4545H220.814ZM149.339 22.6815C129.627 22.6815 111.75 28.7689 98.5284 40.2386C85.2718 51.7391 76.9058 68.4753 75.9866 89.3091L82.5802 89.6C83.4242 70.4693 91.044 55.469 102.853 45.2241C114.698 34.9484 130.967 29.2815 149.339 29.2815V22.6815ZM79.2834 92.7545H108.904V86.1545H79.2834V92.7545ZM112.198 89.6639C113.029 76.5848 117.968 67.7078 124.678 62.0657C131.448 56.373 140.314 53.7304 149.339 53.7304V47.1304C139.086 47.1304 128.617 50.1299 120.43 57.0142C112.183 63.9492 106.543 74.5842 105.611 89.2452L112.198 89.6639ZM149.339 53.7304C169.941 53.7304 186.003 67.1387 186.003 88.044H192.603C192.603 62.8726 172.933 47.1304 149.339 47.1304V53.7304ZM186.003 88.044C186.003 105.268 176.209 117.728 163.142 125.658L166.566 131.3C181.005 122.538 192.603 108.199 192.603 88.044H186.003ZM163.142 125.658C151.493 132.73 141.721 139.982 134.935 151.453C128.16 162.907 124.59 178.169 124.411 200.859L131.011 200.911C131.185 178.817 134.667 164.869 140.616 154.813C146.554 144.775 155.177 138.215 166.567 131.299L163.142 125.658ZM124.411 200.885V202.295H131.011V200.885H124.411ZM142.756 275.181C156.216 275.181 167.214 264.182 167.214 250.723H160.614C160.614 260.537 152.571 268.581 142.756 268.581V275.181ZM167.214 250.723C167.214 237.264 156.216 226.265 142.756 226.265V232.865C152.571 232.865 160.614 240.909 160.614 250.723H167.214ZM142.756 226.265C129.297 226.265 118.299 237.264 118.299 250.723H124.899C124.899 240.909 132.942 232.865 142.756 232.865V226.265ZM118.299 250.723C118.299 264.182 129.297 275.181 142.756 275.181V268.581C132.942 268.581 124.899 260.537 124.899 250.723H118.299Z" fill="white"/>
</svg>
